<svg width="36" height="45" viewBox="0 0 36 45" fill="none" xmlns="http://www.w3.org/2000/svg">
<path d="M17.3582 0.0112625C8.39352 0.319736 0.946064 7.17874 0.0856743 15.9339C-0.0901043 17.685 0.0116624 19.3816 0.326213 21.0056C0.326213 21.0056 0.353968 21.1961 0.446483 21.559C0.724028 22.7748 1.14035 23.9543 1.65843 25.0611C3.46247 29.2527 7.6349 36.266 16.9974 43.8962C17.571 44.3679 18.4129 44.3679 18.9957 43.8962C28.3583 36.2751 32.5307 29.2618 34.344 25.0521C34.8713 23.9452 35.2784 22.7748 35.5559 21.55C35.6392 21.1961 35.6762 20.9965 35.6762 20.9965C35.889 19.9078 36 18.7919 36 17.6487C36 7.68681 27.5904 -0.342575 17.3582 0.0112625ZM17.9966 26.4311C13.1673 26.4311 9.25391 22.5933 9.25391 17.8574C9.25391 13.1214 13.1673 9.28361 17.9966 9.28361C22.8259 9.28361 26.7393 13.1214 26.7393 17.8574C26.7393 22.5933 22.8259 26.4311 17.9966 26.4311Z" fill="url(#paint0_linear_226_5519)"/>
<defs>
<linearGradient id="paint0_linear_226_5519" x1="25.1379" y1="-57.2364" x2="-17.4527" y2="-45.9588" gradientUnits="userSpaceOnUse">
<stop stop-color="#02C4F8"/>
<stop offset="1" stop-color="#1B5C9F"/>
</linearGradient>
</defs>
</svg>
