<svg width="512" height="512" fill="none" xmlns="http://www.w3.org/2000/svg"><path fill="#EFEFEF" d="M0 0h512v512H0z"/><path fill-rule="evenodd" clip-rule="evenodd" d="M156.718 213.089v78.402h-2.797v-78.402h2.797Z" fill="url(#a)"/><path fill-rule="evenodd" clip-rule="evenodd" d="M173.5 213.09v78.402h-2.797V213.09h2.797Z" fill="url(#b)"/><path fill-rule="evenodd" clip-rule="evenodd" d="M190.279 213.09v78.402h-2.797V213.09h2.797Z" fill="url(#c)"/><path fill-rule="evenodd" clip-rule="evenodd" d="M290.956 186.463v106.508h-2.797V186.463h2.797Z" fill="url(#d)"/><path fill-rule="evenodd" clip-rule="evenodd" d="M307.737 186.463v106.508h-2.797V186.463h2.797Z" fill="url(#e)"/><path fill-rule="evenodd" clip-rule="evenodd" d="M324.514 186.463v106.508h-2.796V186.463h2.796Z" fill="url(#f)"/><path fill-rule="evenodd" clip-rule="evenodd" d="M341.297 224.921v68.047H338.5v-68.047h2.797Z" fill="url(#g)"/><path fill-rule="evenodd" clip-rule="evenodd" d="M360.873 224.921v68.047h-2.797v-68.047h2.797Z" fill="url(#h)"/><path fill-rule="evenodd" clip-rule="evenodd" d="M207.058 168.709v124.26h-2.796v-124.26h2.796Z" fill="url(#i)"/><path fill-rule="evenodd" clip-rule="evenodd" d="M223.838 168.709v124.26h-2.797v-124.26h2.797Z" fill="url(#j)"/><path fill-rule="evenodd" clip-rule="evenodd" d="M240.617 148v144.97h-2.796V148h2.796Z" fill="url(#k)"/><path fill-rule="evenodd" clip-rule="evenodd" d="M257.397 148v144.97H254.6V148h2.797Z" fill="url(#l)"/><path fill-rule="evenodd" clip-rule="evenodd" d="M274.177 148v144.97h-2.796V148h2.796Z" fill="url(#m)"/><path d="M179.089 347.531c-.24.18-.611.315-1.114.408-1.426.225-2.349.433-2.769.624-.421.185-.792.569-1.114 1.153-.317.583-.528 1.502-.631 2.756h.032c.672-1.052 1.639-1.577 2.901-1.577 1.114 0 2.024.416 2.728 1.248.705.832 1.057 1.918 1.057 3.259 0 1.387-.363 2.505-1.09 3.354-.726.844-1.69 1.266-2.892 1.266-1.311 0-2.321-.497-3.031-1.491-.71-.994-1.065-2.41-1.065-4.247 0-1.341.106-2.474.319-3.398.219-.925.514-1.656.885-2.193.377-.537.817-.93 1.319-1.179.508-.254 1.592-.534 3.253-.841.486-.115.89-.265 1.212-.45v1.308Zm-5.645 7.628c0 1.005.254 1.872.762 2.6s1.183 1.092 2.024 1.092c.765 0 1.393-.309 1.884-.927.492-.624.738-1.413.738-2.366 0-1.052-.249-1.893-.746-2.523-.497-.629-1.163-.944-1.999-.944-1.174 0-2.062.595-2.663 1.785v1.283ZM195.265 359.805h-1.163v-7.342l-.557 1.049-4.048 6.293h-1.36v-9.11h1.188v7.272c.104-.248.246-.537.426-.866l4.162-6.406h1.352v9.11ZM203.052 358.158c.748.445 1.627.667 2.638.667 1.54 0 2.31-.523 2.31-1.568 0-1.023-.844-1.535-2.531-1.535h-.828v-1.204h.778c1.492 0 2.237-.489 2.237-1.465 0-.416-.175-.749-.524-.997-.344-.254-.809-.381-1.393-.381-.836 0-1.677.225-2.524.676v-1.318c.951-.37 1.822-.555 2.614-.555 2.07 0 3.105.815 3.105 2.445 0 .526-.158.979-.475 1.361-.311.381-.74.635-1.286.762v.052c.644.052 1.158.286 1.54.702.382.411.574.916.574 1.517 0 .827-.32 1.485-.959 1.977-.634.491-1.491.736-2.573.736-1.185 0-2.086-.159-2.703-.476v-1.396ZM224.209 359.805h-1.295v-4.161h-4.481v4.161h-1.303v-9.11h1.303v3.762h4.481v-3.762h1.295v9.11ZM239.598 355.592h-6.104c.028 1.052.293 1.858.795 2.419.508.554 1.188.832 2.04.832.984 0 1.879-.344 2.688-1.032v1.318c-.77.595-1.767.893-2.991.893-1.212 0-2.163-.419-2.851-1.257-.683-.844-1.024-2.008-1.024-3.493 0-1.381.377-2.523 1.13-3.424.754-.907 1.688-1.361 2.803-1.361 1.114 0 1.977.387 2.589 1.162.617.768.925 1.834.925 3.198v.745Zm-1.343-1.213c0-.849-.194-1.514-.582-1.994-.382-.479-.918-.719-1.606-.719-.65 0-1.21.248-1.679.745-.47.492-.762 1.147-.877 1.968h4.744ZM253.251 359.38c-.677.428-1.456.642-2.335.642-1.202 0-2.182-.416-2.942-1.249-.759-.832-1.138-1.935-1.138-3.311 0-1.508.401-2.713 1.204-3.614.808-.907 1.887-1.361 3.236-1.361.743 0 1.404.148 1.983.442v1.439c-.644-.48-1.33-.719-2.056-.719-.88 0-1.609.338-2.188 1.014-.574.67-.86 1.563-.86 2.678 0 1.063.262 1.916.786 2.557.53.636 1.254.953 2.171.953.76 0 1.473-.265 2.139-.797v1.326ZM265.445 355.272h-4.588v-1.101h4.588v1.101ZM281.973 360.456h-1.114v-.651h-7.218v-9.11h1.303v7.922h4.481v-7.922h1.295v7.922h1.253v1.839ZM296.486 355.592h-6.104c.027 1.052.292 1.858.795 2.419.508.554 1.188.832 2.04.832.983 0 1.879-.344 2.687-1.032v1.318c-.77.595-1.767.893-2.99.893-1.213 0-2.163-.419-2.851-1.257-.683-.844-1.025-2.008-1.025-3.493 0-1.381.377-2.523 1.131-3.424.754-.907 1.688-1.361 2.802-1.361s1.977.387 2.589 1.162c.617.768.926 1.834.926 3.198v.745Zm-1.344-1.213c0-.849-.194-1.514-.581-1.994-.383-.479-.918-.719-1.606-.719-.65 0-1.21.248-1.68.745-.47.492-.762 1.147-.876 1.968h4.743ZM311.384 359.805h-1.295v-4.161h-4.481v4.161h-1.303v-9.11h1.303v3.762h4.481v-3.762h1.295v9.11ZM325.258 351.883h-2.614v7.922h-1.286v-7.922h-2.614v-1.188h6.514v1.188ZM333.929 358.47V364h-1.303v-13.305h1.303v1.612h.032c.683-1.213 1.677-1.82 2.983-1.82 1.092 0 1.955.408 2.589 1.222.633.809.95 1.901.95 3.277 0 1.537-.358 2.762-1.073 3.675-.71.907-1.663 1.361-2.86 1.361-1.119 0-1.982-.518-2.589-1.552h-.032Zm0-2.358c0 .757.237 1.405.712 1.942a2.32 2.32 0 0 0 1.795.797c.846 0 1.51-.343 1.991-1.031.486-.688.729-1.647.729-2.878 0-1.011-.23-1.811-.688-2.401-.454-.595-1.06-.892-1.819-.892-.792 0-1.445.297-1.958.892-.508.596-.762 1.347-.762 2.254v1.317ZM296.272 328.471h-9.43v-1.03c.492-.189.984-.355 1.477-.497a15.64 15.64 0 0 1 1.644-.355v-21.124h-5.135l-1.778 5.077h-.839a25.049 25.049 0 0 1-.168-1.597l-.134-1.847-.067-1.846a44.148 44.148 0 0 1-.034-1.633h19.498c0 .474-.011 1.006-.033 1.598a58.875 58.875 0 0 1-.101 1.846 51.868 51.868 0 0 1-.101 1.846 16.987 16.987 0 0 1-.134 1.633h-.873l-1.745-5.077h-5.134v21.124c.581.119 1.118.237 1.611.355a7.86 7.86 0 0 1 1.476.497v1.03ZM329.831 328.471h-9.43v-1.03c.492-.189.984-.355 1.477-.497a15.64 15.64 0 0 1 1.644-.355v-21.124h-5.134l-1.779 5.077h-.839a25.049 25.049 0 0 1-.168-1.597l-.134-1.847-.067-1.846a44.148 44.148 0 0 1-.034-1.633h19.498c0 .474-.011 1.006-.033 1.598a58.875 58.875 0 0 1-.101 1.846 49.613 49.613 0 0 1-.101 1.846 16.987 16.987 0 0 1-.134 1.633h-.873l-1.745-5.077h-5.134v21.124c.581.119 1.118.237 1.611.355a7.86 7.86 0 0 1 1.476.497v1.03ZM365.169 303.619a63.04 63.04 0 0 1-.134 2.876 42.827 42.827 0 0 1-.235 2.876h-.872l-1.376-3.906h-7.316v9.409h5.47l1.309-2.628h.839a64.021 64.021 0 0 1 0 7.172h-.839l-1.309-2.698h-5.47v9.905h7.718l1.645-4.26h.839c.156.994.268 2 .335 3.017a28.11 28.11 0 0 1 .034 3.089h-16.545v-1.03c.783-.378 1.701-.662 2.752-.852v-21.053a16.528 16.528 0 0 1-1.376-.355c-.47-.165-.928-.343-1.376-.532v-1.03h15.907ZM387.5 328.47h-8.448v-1.348a11.86 11.86 0 0 1 2.738-1.116v-27.57c-1.046-.217-1.959-.604-2.738-1.162v-1.348h8.448v1.348a6.266 6.266 0 0 1-1.202.697 9.697 9.697 0 0 1-1.302.465v12.135h10.485v-12.135a15.15 15.15 0 0 1-1.336-.511 9.211 9.211 0 0 1-1.169-.651v-1.348h8.449v1.348c-.401.31-.846.558-1.336.744a24.05 24.05 0 0 1-1.403.418v27.57a10.96 10.96 0 0 1 1.47.465c.467.186.89.403 1.269.651v1.348h-8.449v-1.348a9.94 9.94 0 0 1 2.505-1.116v-13.018h-10.485v13.018c.445.124.879.279 1.302.465.423.186.824.403 1.202.651v1.348ZM255.764 317.166c0 .466 0-.579 0 0v-6.13h1.339l.167 2.155 6.701.456c-.171-3.31-.953-5.786-2.346-7.429-1.372-1.642-3.247-2.464-5.626-2.464-.707 0-1.275.074-1.703.221-.407.122-.697.282-.868.478l-1.672 4.487h-.835a31.786 31.786 0 0 1-.129-1.14 145.83 145.83 0 0 1-.129-1.398l-.064-1.508v-1.544a3.582 3.582 0 0 1 1.157-.699 10.233 10.233 0 0 1 2.958-.736 16.289 16.289 0 0 1 1.478-.073c1.736 0 3.279.257 4.629.772a8.19 8.19 0 0 1 3.472 2.354c.943 1.054 1.661 2.427 2.154 4.119.492 1.667.739 3.678.739 6.032 0 2.353-.3 4.376-.9 6.068-.6 1.667-1.404 3.04-2.411 4.119-.986 1.079-2.122 1.876-3.407 2.391a10.407 10.407 0 0 1-3.954.772c-1.415 0-2.604-.11-3.568-.331a8.938 8.938 0 0 1-2.54-.92c.022-.392.043-.858.065-1.397l.128-1.692c.043-.588.046-.473.089-1.037l-.131 1.586.164-1.988 2.675 3.535c.235.148.632.246 1.189.295.557.024 1.104.036 1.639.036.965 0 1.908-.233 2.829-.698.922-.466 1.747-1.165 2.475-2.097.729-.931 1.318-2.096 1.768-3.494.45-1.397.675-2.77.675-4.634l-3.35-.22-3.351.037-.167 1.716h-1.339ZM227.308 303.619h7.718v1.03c-.38.165-.783.331-1.208.497-.425.142-.861.272-1.309.39l-5.906 9.622 6.879 11.431c1.074.19 1.992.474 2.752.852v1.03h-8.926v-1.03a8.144 8.144 0 0 1 2.55-.852l-5.302-8.911-5.101 8.947c.469.071.928.166 1.376.284.447.095.883.272 1.308.532v1.03h-7.752v-1.03a6.108 6.108 0 0 1 1.242-.532c.425-.118.839-.225 1.242-.32l6.577-10.615-6.309-10.438-1.342-.426a44.619 44.619 0 0 1-1.309-.461v-1.03h8.893v1.03a15.67 15.67 0 0 1-1.141.426c-.403.142-.872.296-1.409.461l4.698 8.024 4.564-8.024a18.938 18.938 0 0 1-2.785-.887v-1.03ZM187.158 328.471h-8.49v-1.03a14.378 14.378 0 0 1 2.752-.852v-21.053c-1.052-.165-1.969-.461-2.752-.887v-1.03h8.49v1.03c-.38.213-.783.39-1.208.532-.425.142-.861.261-1.308.355v9.267h10.537v-9.267c-.47-.118-.917-.248-1.342-.39a10.472 10.472 0 0 1-1.175-.497v-1.03h8.491v1.03c-.403.236-.85.426-1.343.568-.469.118-.939.225-1.409.319v21.053c.514.095 1.007.213 1.476.355.47.142.895.308 1.276.497v1.03h-8.491v-1.03a11.851 11.851 0 0 1 2.517-.852v-9.94h-10.537v9.94c.447.095.883.213 1.308.355.425.142.828.308 1.208.497v1.03ZM151.586 328.471h-7.45v-1.029a12.247 12.247 0 0 1 2.417-.852l8.49-23.397h.973l8.491 23.397c.447.094.883.201 1.309.319.447.119.861.296 1.241.533v1.029h-8.591v-1.029c.448-.19.906-.355 1.376-.497.47-.142.928-.261 1.376-.355l-2.282-6.497h-8.021l-2.215 6.497c.94.142 1.902.426 2.886.852v1.029Zm0-10.224h6.779l-2.651-7.527-.637-3.053h-.068l-.839 3.124-2.584 7.456ZM112.33 300.079c0-.755-.077-1.339-.232-1.754-.145-.414-.391-.621-.738-.621h-.435v-1.776h4.576c.473.873.98 1.961 1.521 3.263a76.322 76.322 0 0 1 1.665 4.284c.56 1.569 1.115 3.242 1.665 5.018.56 1.761 1.086 3.551 1.579 5.372.251-.962.54-1.983.868-3.064.338-1.095.691-2.197 1.058-3.307a126.43 126.43 0 0 1 1.173-3.353 91.51 91.51 0 0 1 1.245-3.196c.425-1.007.84-1.939 1.245-2.797.415-.859.811-1.599 1.188-2.22h4.243v1.776h-.435c-.338 0-.56.199-.666.599-.097.4-.145.977-.145 1.732v24.263c0 .844.048 1.458.145 1.843.097.37.319.555.666.555h.435v1.776h-5.199v-1.776h.434c.348 0 .57-.185.666-.555.107-.385.16-.992.16-1.82v-25.086c-.406.74-.821 1.614-1.246 2.62a78.078 78.078 0 0 0-1.288 3.219 112.06 112.06 0 0 0-1.26 3.618 165.812 165.812 0 0 0-1.202 3.796 311.866 311.866 0 0 0-1.086 3.752c-.348 1.228-.662 2.39-.941 3.485h-1a133.081 133.081 0 0 0-1.042-3.796 181.33 181.33 0 0 0-1.217-4.062 127.707 127.707 0 0 0-1.288-3.996 125.545 125.545 0 0 0-1.304-3.685 53.365 53.365 0 0 0-1.202-3.041c-.376-.903-.714-1.614-1.013-2.132v21.068c0 1.391.009 2.523.029 3.396.029.858.087 1.524.173 1.998.087.474.213.799.377.977.174.163.401.244.681.244h.448v1.776h-5.053v-1.776h.506c.28 0 .502-.081.667-.244.164-.178.289-.503.376-.977.087-.474.14-1.14.159-1.998.029-.873.044-2.013.044-3.419v-19.979Z" fill="#0F191D"/><path fill-rule="evenodd" clip-rule="evenodd" d="M421 340.416H91v-3.177h330v3.177Z" fill="#1B5CA0"/><defs><linearGradient id="a" x1="156.718" y1="213.089" x2="156.718" y2="291.491" gradientUnits="userSpaceOnUse"><stop stop-color="#02C5F9"/><stop offset=".435" stop-color="#0E92CD"/><stop offset="1" stop-color="#1B599D"/></linearGradient><linearGradient id="b" x1="173.5" y1="213.09" x2="173.5" y2="291.492" gradientUnits="userSpaceOnUse"><stop stop-color="#02C5F9"/><stop offset=".435" stop-color="#0E92CD"/><stop offset="1" stop-color="#1B599D"/></linearGradient><linearGradient id="c" x1="190.279" y1="213.09" x2="190.279" y2="291.492" gradientUnits="userSpaceOnUse"><stop stop-color="#02C5F9"/><stop offset=".435" stop-color="#0E92CD"/><stop offset="1" stop-color="#1B599D"/></linearGradient><linearGradient id="d" x1="290.956" y1="186.463" x2="290.956" y2="292.971" gradientUnits="userSpaceOnUse"><stop stop-color="#02C5F9"/><stop offset=".435" stop-color="#0E92CD"/><stop offset="1" stop-color="#1B599D"/></linearGradient><linearGradient id="e" x1="307.737" y1="186.463" x2="307.737" y2="292.971" gradientUnits="userSpaceOnUse"><stop stop-color="#02C5F9"/><stop offset=".435" stop-color="#0E92CD"/><stop offset="1" stop-color="#1B599D"/></linearGradient><linearGradient id="f" x1="324.514" y1="186.463" x2="324.514" y2="292.971" gradientUnits="userSpaceOnUse"><stop stop-color="#02C5F9"/><stop offset=".435" stop-color="#0E92CD"/><stop offset="1" stop-color="#1B599D"/></linearGradient><linearGradient id="g" x1="341.297" y1="224.921" x2="341.297" y2="292.968" gradientUnits="userSpaceOnUse"><stop stop-color="#02C5F9"/><stop offset=".435" stop-color="#0E92CD"/><stop offset="1" stop-color="#1B599D"/></linearGradient><linearGradient id="h" x1="360.873" y1="224.921" x2="360.873" y2="292.968" gradientUnits="userSpaceOnUse"><stop stop-color="#02C5F9"/><stop offset=".435" stop-color="#0E92CD"/><stop offset="1" stop-color="#1B599D"/></linearGradient><linearGradient id="i" x1="207.058" y1="168.709" x2="207.058" y2="292.969" gradientUnits="userSpaceOnUse"><stop stop-color="#02C5F9"/><stop offset=".435" stop-color="#0E92CD"/><stop offset="1" stop-color="#1B599D"/></linearGradient><linearGradient id="j" x1="223.838" y1="168.709" x2="223.838" y2="292.969" gradientUnits="userSpaceOnUse"><stop stop-color="#02C5F9"/><stop offset=".435" stop-color="#0E92CD"/><stop offset="1" stop-color="#1B599D"/></linearGradient><linearGradient id="k" x1="240.617" y1="148" x2="240.617" y2="292.97" gradientUnits="userSpaceOnUse"><stop stop-color="#02C5F9"/><stop offset=".435" stop-color="#0E92CD"/><stop offset="1" stop-color="#1B599D"/></linearGradient><linearGradient id="l" x1="257.397" y1="148" x2="257.397" y2="292.97" gradientUnits="userSpaceOnUse"><stop stop-color="#02C5F9"/><stop offset=".435" stop-color="#0E92CD"/><stop offset="1" stop-color="#1B599D"/></linearGradient><linearGradient id="m" x1="274.177" y1="148" x2="274.177" y2="292.97" gradientUnits="userSpaceOnUse"><stop stop-color="#02C5F9"/><stop offset=".435" stop-color="#0E92CD"/><stop offset="1" stop-color="#1B599D"/></linearGradient></defs></svg>