<svg aria-hidden="true" style="position: absolute; width: 0; height: 0; overflow: hidden;" version="1.1" xmlns="http://www.w3.org/2000/svg" xmlns:xlink="http://www.w3.org/1999/xlink">

    <defs>
        <linearGradient id="paint0-linear_78_2456" x1="20.7109" y1="20.4902" x2="20.7109" y2="45.1723" gradientUnits="userSpaceOnUse">
            <stop offset="0" stop-color="#02C5F9"/>
            <stop offset="0.435417" stop-color="#0E92CD"/>
            <stop offset="1" stop-color="#1B599D"/>
        </linearGradient>
        <linearGradient id="paint1-linear_78_2456" x1="25.9995" y1="20.4922" x2="25.9995" y2="45.1743" gradientUnits="userSpaceOnUse">
            <stop offset="0" stop-color="#02C5F9"/>
            <stop offset="0.435417" stop-color="#0E92CD"/>
            <stop offset="1" stop-color="#1B599D"/>
        </linearGradient>
        <linearGradient id="paint2-linear_78_2456" x1="31.2876" y1="20.4922" x2="31.2876" y2="45.1743" gradientUnits="userSpaceOnUse">
            <stop offset="0" stop-color="#02C5F9"/>
            <stop offset="0.435417" stop-color="#0E92CD"/>
            <stop offset="1" stop-color="#1B599D"/>
        </linearGradient>
        <linearGradient id="paint3-linear_78_2456" x1="63.0161" y1="12.1094" x2="63.0161" y2="45.6398" gradientUnits="userSpaceOnUse">
            <stop offset="0" stop-color="#02C5F9"/>
            <stop offset="0.435417" stop-color="#0E92CD"/>
            <stop offset="1" stop-color="#1B599D"/>
        </linearGradient>
        <linearGradient id="paint4-linear_78_2456" x1="68.3047" y1="12.1094" x2="68.3047" y2="45.6398" gradientUnits="userSpaceOnUse">
            <stop offset="0" stop-color="#02C5F9"/>
            <stop offset="0.435417" stop-color="#0E92CD"/>
            <stop offset="1" stop-color="#1B599D"/>
        </linearGradient>
        <linearGradient id="paint5-linear_78_2456" x1="73.5923" y1="12.1094" x2="73.5923" y2="45.6398" gradientUnits="userSpaceOnUse">
            <stop offset="0" stop-color="#02C5F9"/>
            <stop offset="0.435417" stop-color="#0E92CD"/>
            <stop offset="1" stop-color="#1B599D"/>
        </linearGradient>
        <linearGradient id="paint6-linear_78_2456" x1="78.8814" y1="24.2148" x2="78.8814" y2="45.637" gradientUnits="userSpaceOnUse">
            <stop offset="0" stop-color="#02C5F9"/>
            <stop offset="0.435417" stop-color="#0E92CD"/>
            <stop offset="1" stop-color="#1B599D"/>
        </linearGradient>
        <linearGradient id="paint7-linear_78_2456" x1="85.0508" y1="24.2148" x2="85.0508" y2="45.637" gradientUnits="userSpaceOnUse">
            <stop offset="0" stop-color="#02C5F9"/>
            <stop offset="0.435417" stop-color="#0E92CD"/>
            <stop offset="1" stop-color="#1B599D"/>
        </linearGradient>
        <linearGradient id="paint8-linear_78_2456" x1="36.5757" y1="6.51953" x2="36.5757" y2="45.6383" gradientUnits="userSpaceOnUse">
            <stop offset="0" stop-color="#02C5F9"/>
            <stop offset="0.435417" stop-color="#0E92CD"/>
            <stop offset="1" stop-color="#1B599D"/>
        </linearGradient>
        <linearGradient id="paint9-linear_78_2456" x1="41.8638" y1="6.51953" x2="41.8638" y2="45.6383" gradientUnits="userSpaceOnUse">
            <stop offset="0" stop-color="#02C5F9"/>
            <stop offset="0.435417" stop-color="#0E92CD"/>
            <stop offset="1" stop-color="#1B599D"/>
        </linearGradient>
        <linearGradient id="paint10-linear_78_2456" x1="47.1519" y1="0" x2="47.1519" y2="45.6386" gradientUnits="userSpaceOnUse">
            <stop offset="0" stop-color="#02C5F9"/>
            <stop offset="0.435417" stop-color="#0E92CD"/>
            <stop offset="1" stop-color="#1B599D"/>
        </linearGradient>
        <linearGradient id="paint11-linear_78_2456" x1="52.4399" y1="0" x2="52.4399" y2="45.6386" gradientUnits="userSpaceOnUse">
            <stop offset="0" stop-color="#02C5F9"/>
            <stop offset="0.435417" stop-color="#0E92CD"/>
            <stop offset="1" stop-color="#1B599D"/>
        </linearGradient>
        <linearGradient id="paint12-linear_78_2456" x1="57.7285" y1="0" x2="57.7285" y2="45.6386" gradientUnits="userSpaceOnUse">
            <stop offset="0" stop-color="#02C5F9"/>
            <stop offset="0.435417" stop-color="#0E92CD"/>
            <stop offset="1" stop-color="#1B599D"/>
        </linearGradient>
    </defs>

    <defs>

        <symbol id="icon-menu-phone" viewBox="0 0 23 23">
            <path d="M6.55954 11.6018C7.59683 13.7225 9.31583 15.4336 11.4412 16.4613C11.5967 16.535 11.7687 16.5669 11.9403 16.5539C12.1119 16.5409 12.2771 16.4835 12.4198 16.3872L15.5492 14.3004C15.6877 14.2082 15.8469 14.1518 16.0126 14.1366C16.1782 14.1214 16.3451 14.1478 16.498 14.2133L22.3526 16.7224C22.5515 16.8069 22.7175 16.9537 22.8257 17.1408C22.9339 17.3278 22.9783 17.545 22.9524 17.7595C22.7673 19.2075 22.0608 20.5384 20.9652 21.503C19.8695 22.4676 18.4598 22.9998 17 22.9999C12.4913 22.9999 8.1673 21.2088 4.97919 18.0207C1.79107 14.8326 0 10.5086 0 5.99988C7.67606e-05 4.5401 0.532242 3.13039 1.49685 2.03472C2.46146 0.939054 3.79237 0.232552 5.24037 0.0475034C5.45489 0.0215433 5.67204 0.0660018 5.85909 0.174181C6.04614 0.28236 6.19298 0.4484 6.27746 0.647282L8.78877 6.50702C8.85373 6.65858 8.8802 6.82386 8.86582 6.98813C8.85144 7.1524 8.79666 7.31057 8.70636 7.44855L6.62681 10.626C6.53216 10.769 6.47621 10.934 6.46442 11.105C6.45263 11.2761 6.4854 11.4472 6.55954 11.6018Z"></path>
        </symbol>

        <symbol id="icon-engineering" viewBox="0 0 20 20">
            <path d="M8.453 0.004c-0.002 0.006-0.052 0.192-0.111 0.413l-0.108 0.403-0.339 0.089c-0.721 0.189-1.568 0.542-2.265 0.945l-0.222 0.128-0.713-0.428-2.187 2.187 0.428 0.712-0.128 0.222c-0.403 0.697-0.757 1.543-0.945 2.264l-0.089 0.339-0.805 0.208v3.094l0.805 0.208 0.089 0.339c0.189 0.721 0.542 1.567 0.945 2.264l0.128 0.222-0.427 0.712 0.833 0.836-2.132 0.026-0.27 0.128c-0.375 0.178-0.609 0.406-0.791 0.774-0.142 0.288-0.151 0.326-0.151 0.692s0.008 0.404 0.151 0.692c0.182 0.367 0.415 0.596 0.791 0.774l0.27 0.128 13.415 0.021 0.088 0.143c0.277 0.448 0.793 0.901 1.303 1.144 0.426 0.203 0.758 0.286 1.258 0.313 0.972 0.054 1.921-0.296 2.513-0.926l0.212-0.226v-1.417h-2.583v-1.291h2.583v-1.432l-0.315-0.304c-0.563-0.545-1.251-0.809-2.137-0.82-0.272-0.003-0.494-0.009-0.494-0.012s0.076-0.13 0.168-0.282c0.358-0.587 0.697-1.404 0.892-2.153l0.090-0.343 0.807-0.208v-3.094l-0.807-0.208-0.090-0.343c-0.189-0.724-0.538-1.56-0.943-2.26l-0.128-0.222 0.428-0.712-2.187-2.187-0.713 0.427-0.161-0.093c-0.782-0.449-1.74-0.842-2.523-1.035-0.14-0.034-0.142-0.039-0.245-0.437l-0.104-0.402-1.541-0.011c-0.847-0.006-1.542-0.006-1.544 0zM11.125 1.012l0.096 0.372 0.323 0.066c0.942 0.191 1.846 0.559 2.635 1.072 0.184 0.119 0.346 0.217 0.36 0.217s0.169-0.084 0.346-0.188l0.32-0.188 1.458 1.457-0.188 0.32c-0.103 0.176-0.188 0.332-0.188 0.346s0.089 0.162 0.198 0.329c0.51 0.781 0.911 1.758 1.092 2.665l0.065 0.323 0.744 0.193v2.076l-0.744 0.193-0.065 0.323c-0.133 0.664-0.353 1.294-0.671 1.922-0.407 0.803-0.772 1.273-1.195 1.541-0.308 0.194-0.795 0.661-0.962 0.922l-0.125 0.194h-0.5c-0.275 0-0.5-0.008-0.5-0.017s0.068-0.058 0.151-0.108c0.612-0.369 1.472-1.168 1.94-1.803 1.561-2.116 1.813-4.994 0.644-7.332-1.182-2.362-3.462-3.846-6.085-3.961-1.458-0.064-2.906 0.336-4.157 1.147-2.719 1.762-3.896 5.186-2.84 8.258 0.534 1.553 1.566 2.836 3.026 3.764 0.060 0.038-0.15 0.049-0.995 0.050l-1.070 0.002-0.919-0.921 0.188-0.32c0.103-0.176 0.188-0.331 0.188-0.345s-0.089-0.162-0.198-0.329c-0.51-0.781-0.911-1.758-1.092-2.665l-0.065-0.323-0.744-0.193v-2.076l0.744-0.193 0.066-0.323c0.192-0.941 0.559-1.845 1.072-2.634 0.119-0.184 0.217-0.346 0.217-0.36s-0.084-0.169-0.188-0.345l-0.188-0.32 1.458-1.457 0.32 0.188c0.176 0.103 0.332 0.188 0.346 0.188s0.167-0.093 0.34-0.206c0.704-0.462 1.809-0.915 2.635-1.080l0.343-0.069 0.193-0.743h2.076zM11.202 2.695c2.603 0.51 4.609 2.519 5.132 5.138 0.129 0.646 0.13 1.75 0.001 2.392-0.17 0.851-0.506 1.684-0.944 2.338l-0.216 0.323-0.011-1.442-0.011-1.442h-1.314l-0.159-2.582-0.159-2.582h-1.903l-0.159 2.582-0.159 2.582h-0.669v-1.937h-1.292v-1.291h-0.646v1.291h-0.646v-1.937h-0.646v1.937h-0.646v-1.291h-0.646v1.291h-1.292l-0.001 2.431-0.001 2.431-0.227-0.343c-0.456-0.69-0.776-1.481-0.951-2.35-0.13-0.646-0.13-1.746 0.001-2.4 0.364-1.826 1.407-3.323 3.014-4.327 0.716-0.447 1.792-0.807 2.705-0.904 0.384-0.041 1.423 0.012 1.838 0.093zM12.936 5.805v0.323h-0.727v-0.646h0.727zM13.091 8.276c0.050 0.827 0.090 1.553 0.089 1.614l-0.001 0.111h-1.211l-0.001-0.111c-0.001-0.061 0.039-0.787 0.089-1.614l0.091-1.503h0.854zM9.99 11.938v3.228h-2.021l-0.365-0.141c-0.652-0.252-1.331-0.666-1.902-1.159l-0.232-0.201v-4.955h4.521zM6.115 9.678v0.323h0.646v-0.646h-0.646zM7.407 9.678v0.323h0.646v-0.646h-0.646zM8.698 9.678v0.323h0.646v-0.646h-0.646zM6.115 10.97v0.323h0.646v-0.646h-0.646zM7.407 10.97v0.323h0.646v-0.646h-0.646zM8.698 10.97v0.323h0.646v-0.646h-0.646zM14.511 10.97v0.323h-3.875v-0.646h3.875zM6.115 12.261v0.323h0.646v-0.646h-0.646zM7.407 12.261v0.323h0.646v-0.646h-0.646zM8.698 12.261v0.323h0.646v-0.646h-0.646zM14.511 12.801v0.863l-0.626 0.531-0.011-0.806-0.011-0.806h-2.582v2.582h-0.646v-3.228h3.875zM6.115 13.552v0.323h0.646v-0.646h-0.646zM7.407 13.552v0.323h0.646v-0.646h-0.646zM8.698 13.552v0.323h0.646v-0.646h-0.646zM13.219 13.931v0.702l-0.333 0.164c-0.33 0.163-0.843 0.369-0.919 0.369-0.025 0-0.039-0.365-0.039-0.968v-0.968h1.292zM18.242 14.3c0.313 0.085 0.637 0.251 0.901 0.461l0.212 0.169v0.558h-2.583v2.582h2.583v0.558l-0.212 0.169c-0.441 0.352-0.888 0.511-1.544 0.549-0.92 0.053-1.745-0.33-2.257-1.048-0.097-0.137-0.21-0.317-0.249-0.4l-0.072-0.151h-6.779c-5.204 0-6.818-0.011-6.945-0.049-0.347-0.102-0.671-0.546-0.671-0.919s0.324-0.817 0.671-0.919c0.128-0.038 1.741-0.049 6.943-0.049l6.776-0 0.141-0.27c0.215-0.411 0.663-0.845 1.090-1.055 0.189-0.093 0.461-0.196 0.605-0.228 0.325-0.073 1.045-0.051 1.39 0.043zM1.371 16.556c-0.2 0.2-0.058 0.547 0.224 0.547 0.166 0 0.323-0.157 0.323-0.323s-0.157-0.323-0.323-0.323c-0.079 0-0.161 0.037-0.224 0.099z"></path>
        </symbol>

        <symbol id="icon-parking" viewBox="0 0 20 20">
            <path d="M0.999 0.025c-0.2 0.048-0.558 0.258-0.671 0.393-0.057 0.067-0.154 0.219-0.216 0.336l-0.113 0.213v9.391l0.143 0.263c0.158 0.292 0.288 0.418 0.604 0.585l0.213 0.112 4.029 0.025v-0.669l-3.911-0.023-0.158-0.12c-0.293-0.223-0.276 0.084-0.264-4.927 0.011-4.497 0.012-4.526 0.097-4.641 0.047-0.063 0.138-0.154 0.201-0.201 0.115-0.086 0.144-0.086 4.643-0.097 5.013-0.012 4.705-0.029 4.929 0.264l0.12 0.158 0.011 2.956 0.011 2.956h0.669l-0.012-3.016-0.012-3.016-0.143-0.263c-0.158-0.292-0.288-0.418-0.604-0.585l-0.213-0.112-4.614-0.007c-2.538-0.004-4.671 0.007-4.742 0.024zM2.088 1.422l-0.105 0.105v8.272l0.205 0.205h2.262l0.205-0.205v-2.458l1.117-0.017c1.061-0.016 1.133-0.023 1.437-0.124 0.499-0.166 0.852-0.385 1.228-0.761s0.596-0.73 0.761-1.228c0.093-0.279 0.106-0.392 0.106-0.883s-0.013-0.604-0.106-0.883c-0.165-0.498-0.385-0.852-0.761-1.228-0.374-0.374-0.726-0.592-1.228-0.763l-0.32-0.109-4.697-0.027zM6.767 2.034c0.409 0.074 0.892 0.333 1.206 0.646 0.912 0.911 0.913 2.368 0.002 3.287-0.317 0.32-0.794 0.577-1.208 0.652-0.137 0.025-0.768 0.045-1.411 0.045h-1.163l-0.205 0.205v2.466h-1.336v-7.346h1.934c1.19 0 2.029 0.017 2.182 0.045zM4.090 3.428c-0.102 0.102-0.102 0.109-0.102 0.899s0.001 0.798 0.102 0.899l0.102 0.102h1.135c0.769 0 1.19-0.016 1.307-0.051 0.359-0.106 0.694-0.565 0.694-0.951s-0.335-0.845-0.694-0.951c-0.116-0.034-0.538-0.051-1.307-0.051h-1.135zM6.557 4.096c0.065 0.065 0.103 0.15 0.103 0.231s-0.038 0.167-0.103 0.231c-0.102 0.102-0.103 0.102-1.002 0.102h-0.9v-0.668h0.9c0.899 0 0.9 0 1.002 0.102zM7.683 7.724c-0.092 0.029-0.224 0.083-0.294 0.12-0.14 0.073-0.438 0.379-0.522 0.535-0.029 0.054-0.366 1.038-0.749 2.185l-0.696 2.086-0.269 0.067c-0.148 0.037-0.332 0.1-0.409 0.141-0.222 0.118-0.504 0.427-0.625 0.685l-0.111 0.238v3.256l0.113 0.213c0.167 0.316 0.292 0.446 0.585 0.604l0.263 0.143 2.693 0.026v1.33h-2.004v-0.668h-0.668v0.398c0 0.471 0.054 0.629 0.274 0.797l0.158 0.12h1.242c1.19 0 1.247-0.004 1.358-0.086 0.277-0.206 0.286-0.242 0.3-1.106l0.013-0.79h7.344v0.732c0 0.832 0.027 0.942 0.274 1.131l0.158 0.12h1.242c1.19 0 1.247-0.004 1.358-0.086 0.277-0.207 0.286-0.241 0.3-1.118l0.013-0.801 0.269-0.14c0.296-0.154 0.425-0.285 0.595-0.606l0.113-0.213v-3.256l-0.111-0.238c-0.121-0.259-0.403-0.568-0.625-0.685-0.077-0.041-0.261-0.104-0.409-0.141l-0.269-0.067-0.699-2.095c-0.384-1.152-0.737-2.156-0.783-2.231-0.133-0.214-0.384-0.436-0.611-0.54l-0.209-0.096-4.217-0.008c-3.32-0.006-4.253 0.003-4.384 0.045zM16.264 8.428c0.186 0.094 0.303 0.245 0.356 0.459l0.028 0.115h-9.287l0.028-0.115c0.050-0.201 0.169-0.362 0.338-0.458l0.165-0.093 8.187-0.001zM17.384 11.172l0.501 1.503h-11.761l1.002-3.005h9.756zM18.874 13.421c0.204 0.093 0.377 0.289 0.438 0.497 0.030 0.102 0.041 0.639 0.032 1.581-0.012 1.365-0.017 1.432-0.099 1.542-0.047 0.063-0.138 0.154-0.201 0.201l-0.115 0.086h-13.842l-0.158-0.12c-0.269-0.205-0.274-0.237-0.274-1.8 0-1.17 0.011-1.426 0.065-1.555 0.086-0.206 0.213-0.338 0.416-0.432 0.16-0.074 0.441-0.077 6.868-0.077 6.412 0 6.709 0.003 6.87 0.077zM6.242 14.077c-0.593 0.216-0.958 0.764-0.909 1.365 0.108 1.326 1.85 1.697 2.492 0.53 0.139-0.252 0.149-0.296 0.148-0.626-0.001-0.301-0.018-0.387-0.112-0.568-0.163-0.313-0.29-0.446-0.574-0.597-0.318-0.169-0.747-0.212-1.044-0.104zM16.931 14.077c-0.593 0.216-0.958 0.764-0.909 1.365 0.108 1.326 1.85 1.697 2.492 0.53 0.139-0.252 0.149-0.296 0.148-0.626-0.001-0.301-0.018-0.387-0.112-0.568-0.163-0.313-0.29-0.446-0.574-0.597-0.318-0.169-0.747-0.212-1.044-0.104zM8.664 14.678v0.334h6.681v-0.668h-6.681zM6.924 14.735c0.429 0.179 0.534 0.741 0.2 1.075-0.271 0.271-0.658 0.271-0.928 0-0.516-0.516 0.053-1.357 0.728-1.075zM17.613 14.735c0.429 0.179 0.534 0.741 0.2 1.075-0.469 0.469-1.238 0.049-1.114-0.609 0.074-0.393 0.531-0.626 0.914-0.466zM8.664 16.014v0.334h6.681v-0.668h-6.681zM18.351 18.685v0.668h-2.004v-1.336h2.004z"></path>
        </symbol>

        <symbol id="icon-lift" viewBox="0 0 20 20">
            <path d="M8.192 0.009c-0.359 0.042-1.013 0.217-1.329 0.355-0.435 0.19-1.117 0.701-1.369 1.027s-0.448 0.806-0.489 1.203c-0.031 0.301-0.027 0.318 0.103 0.416l0.135 0.101h6.991l0.135-0.101c0.13-0.097 0.134-0.114 0.103-0.416-0.041-0.397-0.235-0.876-0.489-1.203s-0.935-0.838-1.369-1.027c-0.518-0.226-1.072-0.342-1.719-0.359-0.301-0.008-0.617-0.006-0.703 0.004zM9.662 0.728c0.845 0.218 1.551 0.748 1.834 1.376 0.187 0.416 0.286 0.382-1.116 0.382h-1.224v-0.491c0-0.492-0.035-0.612-0.204-0.71-0.138-0.080-0.345-0.057-0.492 0.053-0.135 0.101-0.137 0.113-0.137 0.626v0.522h-1.224c-1.409 0-1.315 0.034-1.103-0.404 0.238-0.492 0.604-0.838 1.185-1.12 0.286-0.139 0.754-0.28 1.091-0.329 0.286-0.042 1.073 0.011 1.392 0.094zM1.023 3.787c-0.045 0.026-0.11 0.086-0.143 0.133-0.045 0.064-0.061 2.003-0.061 7.77v7.685h-0.277c-0.304 0-0.478 0.082-0.535 0.252-0.034 0.1 0.049 0.247 0.182 0.324 0.064 0.037 1.977 0.048 8.553 0.049 8.438 0.001 8.47 0.001 8.583-0.078 0.148-0.104 0.192-0.243 0.111-0.357-0.104-0.146-0.212-0.187-0.504-0.188l-0.274-0.001v-7.685c0-5.768-0.015-7.706-0.061-7.77-0.033-0.047-0.098-0.107-0.143-0.133-0.121-0.069-15.311-0.069-15.432 0zM15.825 11.869v7.506h-0.417v-7.216c0-5.411-0.015-7.237-0.061-7.301-0.134-0.188 0.151-0.181-6.609-0.181s-6.475-0.008-6.609 0.181c-0.045 0.064-0.061 1.89-0.061 7.301v7.216h-0.417v-15.013h14.172zM8.322 12.338v7.037h-5.419v-14.074h5.419zM14.574 12.338v7.037h-5.419v-14.074h5.419zM18.027 10.398c-0.601 0.456-0.652 0.551-0.398 0.742 0.223 0.167 0.38 0.139 0.773-0.136l0.341-0.239 0.341 0.239c0.392 0.275 0.55 0.303 0.773 0.136 0.254-0.191 0.203-0.287-0.398-0.742-0.474-0.36-0.556-0.406-0.715-0.406s-0.241 0.046-0.715 0.406zM17.629 12.598c-0.254 0.191-0.203 0.287 0.398 0.742 0.474 0.36 0.556 0.406 0.715 0.406s0.241-0.046 0.715-0.406c0.601-0.456 0.652-0.551 0.398-0.742-0.223-0.167-0.38-0.139-0.773 0.136l-0.341 0.239-0.341-0.239c-0.392-0.275-0.55-0.303-0.773-0.136z"></path>
        </symbol>

        <symbol id="icon-fastfood" viewBox="0 0 20 20">
            <path d="M9.821 0.341c-0.773 0.192-1.445 0.359-1.494 0.371l-0.088 0.022v3.484h-3.107l-0.42 1.331h-0.676l-0.283 0.91c-0.156 0.501-0.292 0.941-0.303 0.979-0.018 0.062 0.020 0.069 0.432 0.069 0.248 0 0.452 0.010 0.452 0.023 0 0.062 0.234 3.438 0.254 3.663l0.023 0.259-0.539 0.021c-0.611 0.023-0.938 0.101-1.391 0.328-0.978 0.491-1.698 1.429-1.863 2.424-0.025 0.15-0.052 0.31-0.061 0.357-0.010 0.051-0.056 0.094-0.118 0.11-0.056 0.014-0.196 0.119-0.31 0.233-0.215 0.215-0.331 0.478-0.331 0.748 0 0.19 0.109 0.513 0.216 0.64 0.053 0.063 0.097 0.125 0.097 0.137s-0.052 0.098-0.115 0.192c-0.372 0.552-0.164 1.32 0.429 1.582 0.126 0.056 0.15 0.087 0.172 0.225 0.040 0.251 0.272 0.69 0.478 0.905 0.247 0.258 0.517 0.433 0.831 0.538 0.253 0.085 0.286 0.086 3.201 0.099 3.065 0.013 3.406 0 3.801-0.148 0.567-0.213 1.042-0.756 1.179-1.349 0.037-0.159 0.069-0.207 0.179-0.268 0.265-0.147 0.383-0.265 0.502-0.503 0.089-0.179 0.12-0.296 0.12-0.45 0-0.238-0.112-0.569-0.239-0.704l-0.086-0.092 0.102-0.148c0.182-0.264 0.233-0.437 0.213-0.715-0.011-0.148-0.052-0.32-0.099-0.411-0.094-0.182-0.326-0.415-0.505-0.505-0.097-0.049-0.13-0.096-0.149-0.21-0.013-0.081-0.033-0.2-0.044-0.264-0.059-0.356-0.298-0.924-0.535-1.273-0.166-0.245-0.553-0.646-0.802-0.832-0.278-0.207-0.739-0.435-1.099-0.543-0.269-0.081-0.39-0.089-1.474-0.104-0.65-0.009-1.181-0.025-1.181-0.036 0-0.069-0.237-3.45-0.257-3.665l-0.025-0.264h4.948c3.941 0 4.944-0.010 4.931-0.049-0.009-0.027-0.147-0.467-0.305-0.979l-0.289-0.93h-0.673l-0.423-1.331-3.104-0v-1.035c0-0.952 0.005-1.037 0.068-1.054 0.038-0.011 0.429-0.102 0.869-0.203 0.873-0.201 1.021-0.258 1.2-0.462 0.16-0.183 0.217-0.376 0.198-0.671s-0.144-0.512-0.39-0.675c-0.133-0.088-0.211-0.109-0.439-0.116-0.235-0.007-0.49 0.044-1.683 0.34zM11.674 0.662c0.046 0.049 0.080 0.139 0.080 0.211 0 0.247-0.047 0.268-1.225 0.544-0.598 0.141-1.095 0.256-1.103 0.256s-0.015 0.573-0.015 1.273v1.273h-0.586v-1.508c0-0.829 0.004-1.509 0.010-1.51s0.563-0.14 1.24-0.31c0.677-0.169 1.295-0.309 1.375-0.311 0.102-0.003 0.168 0.022 0.225 0.082zM12.783 5.152c0.057 0.191 0.104 0.358 0.104 0.372s-1.696 0.026-3.768 0.026-3.768-0.013-3.769-0.029c-0-0.016 0.046-0.184 0.104-0.372l0.104-0.343h7.122zM13.888 6.529l0.12 0.392h-9.781l0.239-0.783h9.304zM17.806 8.31v0.646h-1.757v-0.862h-1.757v0.862h-0.586v-0.862h-1.756l-0.010 1.674-0.010 1.674-0.342 0.011c-0.236 0.008-0.341 0.026-0.34 0.059 0.001 0.026 0.208 1.942 0.46 4.257l0.458 4.21 6.889 0.020 0.018-0.088c0.010-0.049 0.213-1.903 0.45-4.122s0.442-4.1 0.455-4.18l0.022-0.147h-0.436v-3.798h-1.757zM5.857 8.388v0.294h3.127l-0.023-0.568-3.104-0.020zM9.567 8.387v0.295h0.784l-0.023-0.568-0.761-0.022zM18.978 9.857v1.606h-0.586v-3.211h0.586zM13.118 10.161c-0.002 1.093-0.014 1.455-0.045 1.39-0.037-0.078-0.072-0.088-0.29-0.088h-0.248v-2.78h0.586zM15.454 11.257l0.010 2.555h-0.586v-5.133l0.566 0.023zM14.272 11.678v2.115l-0.402 0.023-0.082-0.244c-0.079-0.235-0.082-0.315-0.082-2.138v-1.893l0.566 0.023zM16.625 11.688l0.010 2.124h-0.586v-4.272l0.566 0.023zM17.807 11.042l0.001 1.498-0.223 0.636c-0.178 0.507-0.237 0.636-0.294 0.636-0.068 0-0.071-0.098-0.071-2.134v-2.134h0.586zM7.79 12.177c0.79 0.269 1.441 0.871 1.748 1.616 0.083 0.201 0.131 0.376 0.203 0.734 0.013 0.065-0.207 0.069-4.18 0.069h-4.194v-0.090c0-0.162 0.117-0.551 0.25-0.831 0.365-0.77 1.035-1.326 1.862-1.546 0.271-0.072 0.408-0.076 2.145-0.068l1.855 0.009zM13.040 13.225l0.412 1.155h4.328l0.826-2.329 0.361-0.001c0.199-0 0.361 0.014 0.361 0.032s-0.176 1.649-0.39 3.625c-0.215 1.975-0.39 3.608-0.39 3.629 0 0.023-1.124 0.037-2.929 0.037-1.611 0-2.929-0.005-2.929-0.011s-0.176-1.623-0.39-3.593c-0.215-1.97-0.39-3.613-0.39-3.652-0-0.063 0.036-0.069 0.359-0.059l0.359 0.011zM3.475 12.97v0.294h0.586v-0.587h-0.586zM7.029 12.97v0.294h0.586v-0.587h-0.586zM4.647 13.323v0.294h0.586v-0.587h-0.586zM5.857 13.323v0.294h0.586v-0.587h-0.586zM12.818 15.114c0.011 0.070 0.106 0.925 0.21 1.899l0.19 1.772 4.782 0 0.019-0.088c0.010-0.048 0.099-0.846 0.196-1.772s0.187-1.741 0.198-1.811l0.021-0.127h-5.637zM10.235 15.244c0.247 0.128 0.336 0.437 0.193 0.672-0.16 0.263 0.166 0.247-4.883 0.247s-4.723 0.016-4.883-0.247c-0.141-0.231-0.068-0.492 0.183-0.658 0.108-0.071 0.271-0.074 4.692-0.074 4.059-0 4.594 0.007 4.697 0.060zM17.767 15.592c0 0.010-0.061 0.578-0.137 1.263s-0.137 1.268-0.137 1.295c-0 0.038-0.401 0.049-1.874 0.049-1.031 0-1.874-0.008-1.874-0.017s-0.061-0.578-0.137-1.263c-0.075-0.685-0.137-1.268-0.137-1.295-0-0.039 0.456-0.049 2.148-0.049 1.181 0 2.148 0.008 2.148 0.017zM14.175 16.886v0.294h0.586v-0.587h-0.586zM15.346 16.886v0.294h0.586v-0.587h-0.586zM16.518 16.886v0.294h0.547v-0.587h-0.547zM2.071 17.229l0.68 0.48-0.91 0.011c-0.87 0.010-0.915 0.007-1.025-0.072-0.225-0.16-0.284-0.39-0.16-0.622 0.094-0.177 0.288-0.277 0.535-0.277 0.19 0 0.225 0.019 0.878 0.48zM4.475 17.146c0.309 0.218 0.562 0.411 0.562 0.427 0 0.032-0.587 0.456-0.682 0.492-0.047 0.018-1.895-1.25-1.895-1.3 0-0.009 0.327-0.017 0.726-0.017h0.727zM8.633 16.831c-0.3 0.25-1.771 1.254-1.814 1.238-0.048-0.018-1.757-1.214-1.838-1.286-0.020-0.018 0.814-0.032 1.855-0.031l1.892 0.001zM10.22 16.815c0.319 0.152 0.376 0.544 0.113 0.785l-0.14 0.129h-0.887c-0.52 0-0.872-0.014-0.85-0.035 0.020-0.019 0.327-0.239 0.681-0.489 0.704-0.497 0.791-0.528 1.082-0.389zM6.218 18.381c0.322 0.23 0.606 0.418 0.63 0.418s0.197-0.109 0.383-0.241l0.339-0.242h1.077c0.835 0 1.076 0.011 1.076 0.049-0.001 0.116-0.196 0.454-0.353 0.61-0.094 0.093-0.259 0.217-0.367 0.274l-0.197 0.104h-6.521l-0.17-0.091c-0.338-0.181-0.619-0.514-0.726-0.859l-0.027-0.088h2.237l0.731 0.511 0.598-0.429c0.329-0.236 0.622-0.43 0.652-0.432s0.317 0.185 0.639 0.415z"></path>
        </symbol>

        <symbol id="icon-compass" viewBox="0 0 20 20">
            <path d="M10 2c-4.412 0-8 3.588-8 8s3.588 8 8 8c4.412 0 8-3.588 8-8s-3.588-8-8-8zM10 3c3.872 0 7 3.128 7 7s-3.128 7-7 7c-3.872 0-7-3.128-7-7s3.128-7 7-7z"></path>
            <path d="M13.508 5.971c-0.071 0.002-0.138 0.018-0.198 0.046l0.003-0.001-4.846 2.203c-0.113 0.053-0.202 0.143-0.251 0.255l-0.001 0.003-1.99 4.641c-0.026 0.058-0.041 0.126-0.041 0.197 0 0.276 0.224 0.5 0.5 0.5 0.072 0 0.14-0.015 0.202-0.042l-0.003 0.001 4.639-1.988c0.116-0.050 0.207-0.139 0.258-0.251l0.001-0.003 2.195-4.855c0.028-0.060 0.044-0.131 0.044-0.205 0-0.276-0.224-0.5-0.5-0.5-0.004 0-0.009 0-0.013 0l0.001-0zM12.518 7.477l-1.568 3.465-3.313 1.422 1.42-3.314 3.461-1.572z"></path>
        </symbol>

        <symbol id="icon-list" viewBox="0 0 20 20">
            <path d="M3.125 4.813c-0.276 0-0.5 0.224-0.5 0.5v0c0 0.276 0.224 0.5 0.5 0.5v0h13.75c0.276 0 0.5-0.224 0.5-0.5v0c0-0.276-0.224-0.5-0.5-0.5v0h-13.75z"></path>
            <path d="M3.125 7.938c-0.276 0-0.5 0.224-0.5 0.5v0c0 0.276 0.224 0.5 0.5 0.5v0h13.75c0.276 0 0.5-0.224 0.5-0.5v0c0-0.276-0.224-0.5-0.5-0.5v0h-13.75z"></path>
            <path d="M3.125 11.063c-0.276 0-0.5 0.224-0.5 0.5v0c0 0.276 0.224 0.5 0.5 0.5v0h13.75c0.276 0 0.5-0.224 0.5-0.5v0c0-0.276-0.224-0.5-0.5-0.5v0h-13.75z"></path>
            <path d="M3.125 14.188c-0.276 0-0.5 0.224-0.5 0.5v0c0 0.276 0.224 0.5 0.5 0.5v0h13.75c0.276 0 0.5-0.224 0.5-0.5v0c0-0.276-0.224-0.5-0.5-0.5v0h-13.75z"></path>
        </symbol>

        <symbol id="icon-emoji" viewBox="0 0 20 20">
            <path d="M10 2c-4.412 0-8 3.588-8 8s3.588 8 8 8c4.412 0 8-3.588 8-8s-3.588-8-8-8zM10 3c3.872 0 7 3.128 7 7s-3.128 7-7 7c-3.872 0-7-3.128-7-7s3.128-7 7-7z"></path>
            <path d="M6.74 11.375c-0.088 0.002-0.17 0.026-0.241 0.068l0.002-0.001c-0.151 0.088-0.251 0.249-0.251 0.433 0 0.092 0.025 0.178 0.068 0.253l-0.001-0.002c0.373 0.646 0.91 1.182 1.557 1.555s1.379 0.57 2.125 0.57c0.746 0 1.479-0.198 2.125-0.57s1.183-0.909 1.557-1.555c0.042-0.072 0.067-0.158 0.067-0.25 0-0.184-0.1-0.345-0.248-0.432l-0.002-0.001c-0.071-0.042-0.157-0.066-0.249-0.066-0.184 0-0.345 0.099-0.432 0.247l-0.001 0.002c-0.285 0.494-0.697 0.904-1.191 1.189s-1.055 0.436-1.625 0.436c-0.571 0-1.131-0.15-1.625-0.436s-0.904-0.696-1.189-1.189c-0.088-0.151-0.249-0.25-0.433-0.25-0.004 0-0.009 0-0.013 0l0.001-0z"></path>
            <path d="M7.188 9.375c0.518 0 0.938-0.42 0.938-0.938s-0.42-0.938-0.938-0.938c-0.518 0-0.938 0.42-0.938 0.938s0.42 0.938 0.938 0.938z"></path>
            <path d="M11.875 7.938c-0.276 0-0.5 0.224-0.5 0.5v0c0 0.276 0.224 0.5 0.5 0.5v0h1.875c0.276 0 0.5-0.224 0.5-0.5v0c0-0.276-0.224-0.5-0.5-0.5v0h-1.875z"></path>
        </symbol>

        <symbol id="icon-bank-card" viewBox="0 0 20 20">
            <path d="M2.5 3.875c-0.615 0-1.125 0.51-1.125 1.125v10c0 0.615 0.51 1.125 1.125 1.125h15c0.615 0 1.125-0.51 1.125-1.125v-10c0-0.615-0.51-1.125-1.125-1.125h-15zM2.5 4.875h15c0.075 0 0.125 0.050 0.125 0.125v10c0 0.075-0.050 0.125-0.125 0.125h-15c-0.075 0-0.125-0.050-0.125-0.125v-10c0-0.075 0.050-0.125 0.125-0.125z"></path>
            <path d="M13.125 12.625c-0.276 0-0.5 0.224-0.5 0.5v0c0 0.276 0.224 0.5 0.5 0.5v0h2.5c0.276 0 0.5-0.224 0.5-0.5v0c0-0.276-0.224-0.5-0.5-0.5v0h-2.5z"></path>
            <path d="M9.375 12.625c-0.276 0-0.5 0.224-0.5 0.5v0c0 0.276 0.224 0.5 0.5 0.5v0h1.25c0.276 0 0.5-0.224 0.5-0.5v0c0-0.276-0.224-0.5-0.5-0.5v0h-1.25z"></path>
            <path d="M1.875 7.066c-0.276 0-0.5 0.224-0.5 0.5v0c0 0.276 0.224 0.5 0.5 0.5v0h16.25c0.276 0 0.5-0.224 0.5-0.5v0c0-0.276-0.224-0.5-0.5-0.5v0h-16.25z"></path>
        </symbol>

        <symbol id="icon-first-aid" viewBox="0 0 20 20">
            <path d="M8.125 2c-0.298 0-0.584 0.119-0.795 0.33s-0.33 0.497-0.33 0.795v3.875h-3.875c-0.298 0-0.584 0.119-0.795 0.33s-0.33 0.497-0.33 0.795v3.75c0 0.298 0.119 0.584 0.33 0.795s0.497 0.33 0.795 0.33h3.875v3.875c0 0.298 0.119 0.584 0.33 0.795s0.497 0.33 0.795 0.33h3.75c0.298 0 0.584-0.119 0.795-0.33s0.33-0.497 0.33-0.795v-3.875h3.875c0.298 0 0.584-0.119 0.795-0.33s0.33-0.497 0.33-0.795v-3.75c0-0.298-0.119-0.584-0.33-0.795s-0.497-0.33-0.795-0.33h-3.875v-3.875c0-0.298-0.119-0.584-0.33-0.795s-0.497-0.33-0.795-0.33h-3.75zM8.125 3h3.75c0.033 0 0.064 0.013 0.088 0.037s0.037 0.054 0.037 0.088v4.375c0 0.276 0.224 0.5 0.5 0.5h4.375c0.033 0 0.064 0.013 0.088 0.037s0.037 0.054 0.037 0.088v3.75c0 0.034-0.014 0.064-0.037 0.088s-0.054 0.037-0.088 0.037h-4.375c-0.276 0-0.5 0.224-0.5 0.5v0 4.375c0 0.034-0.014 0.064-0.037 0.088s-0.054 0.037-0.088 0.037h-3.75c-0.033 0-0.064-0.014-0.088-0.037s-0.037-0.054-0.037-0.088v-4.375c-0-0.276-0.224-0.5-0.5-0.5h-4.375c-0.033 0-0.064-0.014-0.088-0.037s-0.037-0.054-0.037-0.088v-3.75c0-0.033 0.014-0.064 0.037-0.088s0.055-0.037 0.088-0.037h4.375c0.276-0 0.5-0.224 0.5-0.5v0-4.375c0-0.033 0.014-0.064 0.037-0.088s0.055-0.037 0.088-0.037z"></path>
        </symbol>

        <symbol id="icon-dumbbell" viewBox="0 0 20 20">
            <path d="M5 3.875c-0.615 0-1.125 0.51-1.125 1.125v10c0 0.615 0.51 1.125 1.125 1.125h1.875c0.615 0 1.125-0.51 1.125-1.125v-10c0-0.615-0.51-1.125-1.125-1.125h-1.875zM5 4.875h1.875c0.075 0 0.125 0.050 0.125 0.125v10c0 0.075-0.050 0.125-0.125 0.125h-1.875c-0.075 0-0.125-0.050-0.125-0.125v-10c0-0.075 0.050-0.125 0.125-0.125z"></path>
            <path d="M13.125 3.875c-0.615 0-1.125 0.51-1.125 1.125v10c0 0.615 0.51 1.125 1.125 1.125h1.875c0.615 0 1.125-0.51 1.125-1.125v-10c0-0.615-0.51-1.125-1.125-1.125h-1.875zM13.125 4.875h1.875c0.075 0 0.125 0.050 0.125 0.125v10c0 0.075-0.050 0.125-0.125 0.125h-1.875c-0.075 0-0.125-0.050-0.125-0.125v-10c0-0.075 0.050-0.125 0.125-0.125z"></path>
            <path d="M15.625 5.75c-0.276 0-0.5 0.224-0.5 0.5v0c0 0.276 0.224 0.5 0.5 0.5v0h1.875c0.033 0 0.064 0.013 0.088 0.037s0.037 0.054 0.037 0.088v6.25c0 0.034-0.014 0.064-0.037 0.088s-0.054 0.037-0.088 0.037h-1.875c-0.276 0-0.5 0.224-0.5 0.5v0c0 0.276 0.224 0.5 0.5 0.5v0h1.875c0.298 0 0.584-0.119 0.795-0.33s0.33-0.497 0.33-0.795v-6.25c0-0.298-0.119-0.584-0.33-0.795s-0.497-0.33-0.795-0.33h-1.875z"></path>
            <path d="M2.5 5.75c-0.298 0-0.584 0.119-0.795 0.33s-0.33 0.497-0.33 0.795v6.25c0 0.298 0.119 0.584 0.33 0.795s0.497 0.33 0.795 0.33h1.875c0.276 0 0.5-0.224 0.5-0.5v0c0-0.276-0.224-0.5-0.5-0.5v0h-1.875c-0.033 0-0.064-0.014-0.088-0.037s-0.037-0.054-0.037-0.088v-6.25c0-0.033 0.014-0.064 0.037-0.088s0.055-0.037 0.088-0.037h1.875c0.276 0 0.5-0.224 0.5-0.5v0c0-0.276-0.224-0.5-0.5-0.5v0h-1.875z"></path>
            <path d="M7.5 9.5c-0.276 0-0.5 0.224-0.5 0.5v0c0 0.276 0.224 0.5 0.5 0.5v0h5c0.276 0 0.5-0.224 0.5-0.5v0c0-0.276-0.224-0.5-0.5-0.5v0h-5z"></path>
            <path d="M18.125 9.5c-0.276 0-0.5 0.224-0.5 0.5v0c0 0.276 0.224 0.5 0.5 0.5v0h1.25c0.276 0 0.5-0.224 0.5-0.5v0c0-0.276-0.224-0.5-0.5-0.5v0h-1.25z"></path>
            <path d="M0.625 9.5c-0.276 0-0.5 0.224-0.5 0.5v0c0 0.276 0.224 0.5 0.5 0.5v0h1.25c0.276 0 0.5-0.224 0.5-0.5v0c0-0.276-0.224-0.5-0.5-0.5v0h-1.25z"></path>
        </symbol>

        <symbol id="icon-cutlery" viewBox="0 0 20 20">
            <path d="M6.563 2c-0.276 0-0.5 0.224-0.5 0.5v0 3.125c0 0.276 0.224 0.5 0.5 0.5v0c0.276 0 0.5-0.224 0.5-0.5v0-3.125c0-0.276-0.224-0.5-0.5-0.5v0z"></path>
            <path d="M6.563 8.563c-0.276 0-0.5 0.224-0.5 0.5v0 8.438c0 0.276 0.224 0.5 0.5 0.5v0c0.276 0 0.5-0.224 0.5-0.5v0-8.438c0-0.276-0.224-0.5-0.5-0.5v0z"></path>
            <path d="M4.398 2c-0.007-0-0.016-0.001-0.024-0.001-0.247 0-0.453 0.18-0.493 0.416l-0 0.003-0.625 3.75c-0.004 0.023-0.006 0.050-0.006 0.077 0 0.002 0 0.004 0 0.006v-0c0 0.878 0.35 1.721 0.971 2.342s1.463 0.971 2.342 0.971c0.878 0 1.721-0.35 2.342-0.971s0.971-1.463 0.971-2.342c0-0.002 0-0.004 0-0.006 0-0.027-0.002-0.054-0.006-0.079l0 0.003-0.625-3.75c-0.040-0.239-0.246-0.419-0.493-0.419-0.029 0-0.058 0.002-0.086 0.007l0.003-0c-0.239 0.040-0.419 0.246-0.419 0.493 0 0.029 0.003 0.058 0.007 0.086l-0-0.003 0.613 3.682c-0.004 0.608-0.242 1.191-0.672 1.621-0.434 0.434-1.021 0.678-1.635 0.678s-1.201-0.244-1.635-0.678c-0.43-0.43-0.668-1.013-0.672-1.621l0.613-3.682c0.004-0.025 0.007-0.054 0.007-0.083 0-0.248-0.18-0.453-0.416-0.493l-0.003-0c-0.017-0.003-0.037-0.005-0.058-0.006l-0.001-0z"></path>
            <path d="M15.949 2c-0.004-0-0.008-0-0.013-0-0.061 0-0.119 0.011-0.173 0.031l0.003-0.001c-1.029 0.374-1.795 1.261-2.398 2.313s-1.050 2.294-1.389 3.49c-0.678 2.393-0.916 4.615-0.916 4.615-0.002 0.016-0.003 0.034-0.003 0.053 0 0.276 0.224 0.5 0.5 0.5 0 0 0.001 0 0.001 0h3.875v4.5c0 0.276 0.224 0.5 0.5 0.5v0c0.276 0 0.5-0.224 0.5-0.5v0-4.988c0-0.002 0-0.004 0-0.006s-0-0.004-0-0.006v0-10c0-0 0-0 0-0 0-0.272-0.217-0.493-0.488-0.5l-0.001-0zM15.438 3.641v8.359h-3.268c0.053-0.442 0.202-1.885 0.771-3.895 0.325-1.147 0.758-2.327 1.297-3.268 0.346-0.603 0.783-0.854 1.199-1.197z"></path>
        </symbol>

        <symbol id="icon-market" viewBox="0 0 20 20">
            <path d="M3.75 10.406c-0.276 0-0.5 0.224-0.5 0.5v0 5.344c0 0.298 0.119 0.586 0.33 0.797s0.497 0.328 0.795 0.328h11.25c0.298 0 0.584-0.117 0.795-0.328s0.33-0.499 0.33-0.797v-5.344c0-0.276-0.224-0.5-0.5-0.5v0c-0.276 0-0.5 0.224-0.5 0.5v0 5.344c0 0.034-0.014 0.066-0.037 0.090s-0.054 0.035-0.088 0.035h-11.25c-0.033 0-0.064-0.012-0.088-0.035s-0.037-0.056-0.037-0.090v-5.344c0-0.276-0.224-0.5-0.5-0.5v0z"></path>
            <path d="M4.221 2.625c-0.244 0-0.481 0.079-0.676 0.227s-0.337 0.355-0.404 0.59l-1.121 3.922c-0.012 0.041-0.019 0.088-0.019 0.137 0 0.276 0.224 0.5 0.499 0.5h15c0.276-0 0.5-0.224 0.5-0.5 0-0.049-0.007-0.096-0.020-0.14l0.001 0.004-1.121-3.922c-0.067-0.235-0.209-0.443-0.404-0.59s-0.431-0.227-0.676-0.227h-11.559zM4.221 3.625h11.559c0.027 0 0.053 0.009 0.074 0.025s0.037 0.038 0.045 0.064l0.939 3.285h-13.676l0.939-3.285c0.007-0.026 0.023-0.048 0.045-0.064s0.047-0.025 0.074-0.025z"></path>
            <path d="M2.5 7c-0.276 0-0.5 0.224-0.5 0.5v0 1.25c0 0.795 0.316 1.559 0.879 2.121s1.326 0.879 2.121 0.879 1.559-0.316 2.121-0.879c0.562-0.563 0.879-1.326 0.879-2.121v-1.25c0-0.276-0.224-0.5-0.5-0.5v0c-0.276 0-0.5 0.224-0.5 0.5v0 1.25c0 0.531-0.211 1.039-0.586 1.414s-0.883 0.586-1.414 0.586-1.039-0.211-1.414-0.586c-0.375-0.375-0.586-0.883-0.586-1.414v-1.25c0-0.276-0.224-0.5-0.5-0.5v0z"></path>
            <path d="M7.5 7c-0.276 0-0.5 0.224-0.5 0.5v0 1.25c0 0.795 0.316 1.559 0.879 2.121s1.326 0.879 2.121 0.879c0.795 0 1.559-0.317 2.121-0.879s0.879-1.326 0.879-2.121v-1.25c0-0.276-0.224-0.5-0.5-0.5v0c-0.276 0-0.5 0.224-0.5 0.5v0 1.25c0 0.531-0.211 1.039-0.586 1.414s-0.883 0.586-1.414 0.586c-0.531 0-1.039-0.211-1.414-0.586s-0.586-0.883-0.586-1.414v-1.25c0-0.276-0.224-0.5-0.5-0.5v0z"></path>
            <path d="M12.5 7c-0.276 0-0.5 0.224-0.5 0.5v0 1.25c0 0.795 0.317 1.559 0.879 2.121s1.326 0.879 2.121 0.879 1.559-0.317 2.121-0.879c0.562-0.562 0.879-1.326 0.879-2.121v-1.25c0-0.276-0.224-0.5-0.5-0.5v0c-0.276 0-0.5 0.224-0.5 0.5v0 1.25c0 0.531-0.211 1.039-0.586 1.414s-0.883 0.586-1.414 0.586-1.039-0.211-1.414-0.586c-0.375-0.375-0.586-0.883-0.586-1.414v-1.25c0-0.276-0.224-0.5-0.5-0.5v0z"></path>
        </symbol>

        <symbol id="icon-clock" viewBox="0 0 20 20">
            <path d="M10 2c-4.412 0-8 3.588-8 8s3.588 8 8 8c4.412 0 8-3.588 8-8s-3.588-8-8-8zM10 3c3.872 0 7 3.128 7 7s-3.128 7-7 7c-3.872 0-7-3.128-7-7s3.128-7 7-7z"></path>
            <path d="M10 5.125c-0.276 0-0.5 0.224-0.5 0.5v0 4.375c0 0.276 0.224 0.5 0.5 0.5h4.375c0.276 0 0.5-0.224 0.5-0.5v0c0-0.276-0.224-0.5-0.5-0.5v0h-3.875v-3.875c0-0.276-0.224-0.5-0.5-0.5v0z"></path>
        </symbol>

        <symbol id="icon-envelope" viewBox="0 0 20 20">
            <path d="M2.5 3.875c-0.276 0-0.5 0.224-0.5 0.5v0 10.625c0 0.298 0.119 0.584 0.33 0.795s0.497 0.33 0.795 0.33h13.75c0.298 0 0.584-0.119 0.795-0.33s0.33-0.497 0.33-0.795v-10.625c-0-0.276-0.224-0.5-0.5-0.5h-15zM3 4.875h14v10.125c0 0.034-0.014 0.064-0.037 0.088s-0.054 0.037-0.088 0.037h-13.75c-0.033 0-0.064-0.014-0.088-0.037s-0.037-0.054-0.037-0.088v-10.125z"></path>
            <path d="M2.514 3.875c-0.004-0-0.009-0-0.014-0-0.146 0-0.277 0.062-0.368 0.162l-0 0c-0.082 0.089-0.131 0.207-0.131 0.338 0 0.146 0.063 0.277 0.162 0.369l0 0 7.5 6.875c0.089 0.081 0.207 0.131 0.338 0.131s0.249-0.050 0.338-0.132l-0 0 7.5-6.875c0.1-0.092 0.163-0.223 0.163-0.369 0-0.13-0.050-0.249-0.132-0.338l0 0c-0.092-0.1-0.223-0.163-0.369-0.163-0.13 0-0.249 0.050-0.338 0.132l0-0-7.162 6.566-7.162-6.566c-0.085-0.078-0.199-0.127-0.324-0.131l-0.001-0z"></path>
        </symbol>

        <symbol id="icon-phone" viewBox="0 0 20 20">
            <path d="M6.336 2.033c-1.026 0.131-1.967 0.632-2.65 1.408s-1.060 1.775-1.061 2.809c0 2.95 1.172 5.781 3.258 7.867s4.917 3.258 7.867 3.258c1.034 0 2.033-0.377 2.809-1.061s1.277-1.625 1.408-2.65c0-0.001 0-0.001 0-0.002s0-0.001 0-0.002v0c0.029-0.242-0.021-0.487-0.143-0.697s-0.308-0.375-0.531-0.471h-0.002l-3.658-1.568c-0.172-0.074-0.359-0.103-0.545-0.086s-0.366 0.080-0.521 0.184l-1.957 1.305c-0.001 0.001-0.001 0.001-0.002 0.002l-0 0c-0.017 0.012-0.036 0.018-0.057 0.020s-0.041-0.004-0.059-0.012h-0.002c-1.225-0.593-2.216-1.579-2.814-2.801-0-0.001 0-0.001 0-0.002-0.008-0.018-0.013-0.039-0.012-0.059s0.008-0.039 0.020-0.057c0.001-0.001 0.001-0.001 0.002-0.002l0-0 1.299-1.986c0.102-0.155 0.164-0.333 0.18-0.518s-0.013-0.371-0.086-0.541l-1.57-3.662v-0.002c-0.095-0.223-0.26-0.41-0.471-0.531s-0.456-0.172-0.697-0.143c-0.001 0-0.001 0-0.002 0s-0.001 0-0.002 0h0zM6.461 3.025c0.027-0.003 0.053 0.002 0.076 0.016s0.040 0.034 0.051 0.059c0 0 0 0.001 0 0.001s0 0.001 0 0.001v-0l1.57 3.662c0.008 0.019 0.012 0.040 0.010 0.061s-0.008 0.039-0.020 0.057l-1.301 1.986c-0.106 0.161-0.168 0.347-0.182 0.539s0.024 0.386 0.107 0.561c0.002 0.004 0.003 0.005 0.003 0.007l-0.001-0.003c0.697 1.426 1.854 2.577 3.283 3.268 0.001 0.001 0.001 0.001 0.002 0.002l0 0c0.176 0.084 0.371 0.12 0.564 0.105 0.192-0.015 0.379-0.080 0.539-0.188l0.004-0.002 1.953-1.303c0.017-0.012 0.036-0.018 0.057-0.020s0.042 0.002 0.061 0.010l3.66 1.568c0 0 0.001 0 0.001 0s0.001 0 0.001 0h-0c0.024 0.010 0.045 0.027 0.059 0.051s0.019 0.050 0.016 0.076c-0.101 0.784-0.483 1.503-1.076 2.025s-1.358 0.811-2.148 0.811c-2.685 0-5.261-1.066-7.16-2.965s-2.965-4.475-2.965-7.16c0-0.791 0.288-1.555 0.811-2.148s1.242-0.976 2.025-1.076z"></path>
        </symbol>

        <symbol id="icon-arrow-right-top" viewBox="0 0 16 16">
            <path d="M14.3764 0.637236C14.9287 0.637237 15.3764 1.08495 15.3764 1.63724L15.3764 10.6372C15.3764 11.1895 14.9287 11.6372 14.3764 11.6372C13.8242 11.6372 13.3764 11.1895 13.3764 10.6372L13.3764 2.63724L5.37644 2.63724C4.82415 2.63724 4.37644 2.18952 4.37644 1.63724C4.37643 1.08495 4.82415 0.637237 5.37643 0.637237L14.3764 0.637236ZM0.234299 14.3652L13.6693 0.93013L15.0835 2.34434L1.64851 15.7794L0.234299 14.3652Z"/>
            <defs>
                <linearGradient id="linear-arrow-right-top" x1="11.2374" y1="6.60554" x2="8.12353" y2="4.35857" gradientUnits="userSpaceOnUse">
                    <stop stop-color="#02C4F8" offset="0"/>
                    <stop stop-color="#1B5C9F" offset="1"/>
                </linearGradient>
            </defs>
        </symbol>

        <symbol id="icon-arrow-down" viewBox="0 0 16 20">
            <path d="M7.29289 19.7071C7.68342 20.0976 8.31658 20.0976 8.70711 19.7071L15.0711 13.3431C15.4616 12.9526 15.4616 12.3195 15.0711 11.9289C14.6805 11.5384 14.0474 11.5384 13.6569 11.9289L8 17.5858L2.34315 11.9289C1.95262 11.5384 1.31946 11.5384 0.928932 11.9289C0.538408 12.3195 0.538408 12.9526 0.928932 13.3431L7.29289 19.7071ZM7 0L7 19H9L9 0L7 0Z"/>
            <defs>
                <linearGradient id="linear-arrow-down" x1="9.29348" y1="13.2672" x2="5.5028" y2="12.6543" gradientUnits="userSpaceOnUse">
                <stop stop-color="#02C4F8" offset="0" />
                <stop stop-color="#1B5C9F" offset="1" />
                </linearGradient>
            </defs>
        </symbol>

        <symbol id="icon-arrow-top" viewBox="0 0 24 24">
            <path d="M13.265 2.221c-0.391-0.39-1.024-0.39-1.414 0l-6.364 6.364c-0.391 0.39-0.391 1.024 0 1.414s1.024 0.39 1.414 0l5.657-5.657 5.657 5.657c0.39 0.39 1.024 0.39 1.414 0s0.39-1.024 0-1.414zM13.558 21.928v-19h-2v19z"></path>
        </symbol>

        <symbol id="icon-arrow-left" viewBox="0 0 20 16">
            <path d="M0.292892 8.70711C-0.0976315 8.31658 -0.0976315 7.68342 0.292892 7.29289L6.65685 0.928932C7.04738 0.538408 7.68054 0.538408 8.07107 0.928932C8.46159 1.31946 8.46159 1.95262 8.07107 2.34315L2.41421 8L8.07107 13.6569C8.46159 14.0474 8.46159 14.6805 8.07107 15.0711C7.68054 15.4616 7.04738 15.4616 6.65685 15.0711L0.292892 8.70711ZM20 9H1V7H20V9Z"/>
        </symbol>

        <symbol id="icon-arrow-left-short" viewBox="0 0 14 16">
            <path d="M0.292893 7.29289C-0.0976315 7.68342 -0.0976315 8.31658 0.292893 8.70711L6.65685 15.0711C7.04738 15.4616 7.68054 15.4616 8.07107 15.0711C8.46159 14.6805 8.46159 14.0474 8.07107 13.6569L2.41421 8L8.07107 2.34315C8.46159 1.95262 8.46159 1.31946 8.07107 0.928932C7.68054 0.538408 7.04738 0.538408 6.65685 0.928932L0.292893 7.29289ZM14 7L1 7V9L14 9V7Z"/>
        </symbol>

        <symbol id="icon-arrow-right" viewBox="0 0 20 16">
            <path d="M19.7071 8.70711C20.0976 8.31658 20.0976 7.68342 19.7071 7.29289L13.3431 0.928932C12.9526 0.538408 12.3195 0.538408 11.9289 0.928932C11.5384 1.31946 11.5384 1.95262 11.9289 2.34315L17.5858 8L11.9289 13.6569C11.5384 14.0474 11.5384 14.6805 11.9289 15.0711C12.3195 15.4616 12.9526 15.4616 13.3431 15.0711L19.7071 8.70711ZM0 9H19V7H0V9Z"/>
            <defs>
                <linearGradient id="linear-arrow-right" x1="13.2672" y1="6.70652" x2="12.6543" y2="10.4972" gradientUnits="userSpaceOnUse">
                    <stop stop-color="#02C4F8" offset="0"/>
                    <stop stop-color="#1B5C9F" offset="1"/>
                </linearGradient>
            </defs>
        </symbol>

        <symbol id="icon-cross" viewBox="0 0 24 24">
            <path d="M13.414 12l5.293-5.293c0.391-0.391 0.391-1.023 0-1.414s-1.023-0.391-1.414 0l-5.293 5.293-5.293-5.293c-0.391-0.391-1.023-0.391-1.414 0s-0.391 1.023 0 1.414l5.293 5.293-5.293 5.293c-0.391 0.391-0.391 1.023 0 1.414 0.195 0.195 0.451 0.293 0.707 0.293s0.512-0.098 0.707-0.293l5.293-5.293 5.293 5.293c0.195 0.195 0.451 0.293 0.707 0.293s0.512-0.098 0.707-0.293c0.391-0.391 0.391-1.023 0-1.414z"></path>
        </symbol>

        <symbol id="icon-facebook" viewBox="0 0 16 16">
            <path d="M9.122 9.2h1.905l0.762-3.2h-2.667v-1.6c0-0.824 0-1.6 1.524-1.6h1.143v-2.688c-0.248-0.034-1.186-0.112-2.177-0.112-2.069 0-3.538 1.326-3.538 3.76v2.24h-2.286v3.2h2.286v6.8h3.048z"></path>
        </symbol>

        <symbol id="icon-vk" viewBox="0 0 16 16">
            <path d="M15.633 3.646c0.111-0.39 0-0.677-0.529-0.677h-1.75c-0.445 0-0.65 0.248-0.761 0.521 0 0-0.89 2.283-2.151 3.767-0.408 0.429-0.593 0.566-0.816 0.566-0.111 0-0.272-0.137-0.272-0.527v-3.649c0-0.468-0.129-0.677-0.5-0.677h-2.751c-0.278 0-0.445 0.217-0.445 0.423 0 0.444 0.63 0.546 0.695 1.795v2.713c0 0.595-0.102 0.703-0.325 0.703-0.593 0-2.037-2.294-2.893-4.918-0.168-0.51-0.336-0.716-0.783-0.716h-1.75c-0.5 0-0.6 0.248-0.6 0.521 0 0.488 0.593 2.908 2.763 6.108 1.446 2.186 3.484 3.371 5.339 3.371 1.113 0 1.25-0.263 1.25-0.716v-1.652c0-0.526 0.105-0.631 0.458-0.631 0.26 0 0.705 0.137 1.743 1.19 1.187 1.249 1.383 1.809 2.050 1.809h1.75c0.5 0 0.75-0.263 0.606-0.782-0.158-0.518-0.725-1.269-1.476-2.159-0.408-0.507-1.020-1.054-1.205-1.327-0.26-0.351-0.185-0.507 0-0.82 0 0 2.133-3.162 2.355-4.235z"></path>
        </symbol>

        <symbol id="icon-instagram" viewBox="0 0 16 16">
            <path d="M8 0.381c2.070 0 2.328 0.008 3.141 0.046s1.364 0.165 1.85 0.354c0.503 0.194 0.927 0.456 1.35 0.878 0.387 0.381 0.687 0.842 0.879 1.35 0.188 0.485 0.316 1.038 0.354 1.85 0.036 0.812 0.046 1.070 0.046 3.141s-0.008 2.328-0.046 3.141c-0.038 0.811-0.166 1.364-0.354 1.85-0.191 0.509-0.491 0.97-0.879 1.35-0.381 0.387-0.842 0.687-1.35 0.879-0.485 0.188-1.038 0.316-1.85 0.354-0.812 0.036-1.070 0.046-3.141 0.046s-2.328-0.008-3.141-0.046c-0.811-0.038-1.364-0.166-1.85-0.354-0.509-0.191-0.97-0.491-1.35-0.879-0.387-0.381-0.687-0.842-0.878-1.35-0.189-0.485-0.316-1.038-0.354-1.85-0.036-0.812-0.046-1.070-0.046-3.141s0.008-2.328 0.046-3.141c0.038-0.812 0.165-1.364 0.354-1.85 0.191-0.509 0.491-0.97 0.878-1.35 0.381-0.388 0.841-0.687 1.35-0.878 0.486-0.189 1.038-0.316 1.85-0.354 0.812-0.036 1.070-0.046 3.141-0.046zM8 4.19c-1.010 0-1.979 0.401-2.694 1.116s-1.116 1.683-1.116 2.694c0 1.010 0.401 1.979 1.116 2.694s1.683 1.116 2.694 1.116 1.979-0.401 2.694-1.116c0.714-0.714 1.116-1.683 1.116-2.694s-0.401-1.979-1.116-2.694c-0.714-0.714-1.683-1.116-2.694-1.116v0zM12.952 4c0-0.253-0.1-0.495-0.279-0.673s-0.421-0.279-0.673-0.279-0.495 0.1-0.673 0.279c-0.179 0.179-0.279 0.421-0.279 0.673s0.1 0.495 0.279 0.673c0.179 0.179 0.421 0.279 0.673 0.279s0.495-0.1 0.673-0.279c0.179-0.179 0.279-0.421 0.279-0.673zM8 5.714c0.606 0 1.188 0.241 1.616 0.669s0.669 1.010 0.669 1.616c0 0.606-0.241 1.188-0.669 1.616s-1.010 0.669-1.616 0.669c-0.606 0-1.188-0.241-1.616-0.669s-0.669-1.010-0.669-1.616c0-0.606 0.241-1.188 0.669-1.616s1.010-0.669 1.616-0.669v0z"></path>
        </symbol>

    </defs>
</svg>
